<svg height="512" viewBox="0 0 64 64" width="512" xmlns="http://www.w3.org/2000/svg"><g id="App_development" data-name="App development"><path d="m21 14h-8a3 3 0 0 0 -3 3v14h2v-14a1 1 0 0 1 1-1h8z" fill="#5eac24"/><path d="m50 14h-7v2h7a1 1 0 0 1 1 1v14h2v-14a3 3 0 0 0 -3-3z" fill="#5eac24"/><circle cx="32" cy="15" fill="#d80027" r="12"/><path d="m40 17h-3.17l2.24 2.24-2.83 2.83-2.24-2.24v3.17h-4v-3.17l-2.24 2.24-2.83-2.83 2.24-2.24h-3.17v-4h3.17l-2.24-2.24 2.83-2.83 2.24 2.24v-3.17h4v3.17l2.24-2.24 2.83 2.83-2.24 2.24h3.17z" fill="#ffcd00"/><path d="m43 37h18v18h-18z" fill="#ffc477"/><path d="m43 57a4 4 0 0 0 4 4h10a4 4 0 0 0 4-4v-2h-18z" fill="#005ece"/><path d="m57 31h-10a4 4 0 0 0 -4 4v2h18v-2a4 4 0 0 0 -4-4z" fill="#005ece"/><path d="m7 61h28a4 4 0 0 0 4-4v-2h-36v2a4 4 0 0 0 4 4z" fill="#1a6fb0"/><path d="m37 33v22h-32v-22a2.006 2.006 0 0 1 2-2h28a2.006 2.006 0 0 1 2 2z" fill="#1e81ce"/><path d="m9 35h24v16h-24z" fill="#ffdaaa"/><path d="m17 56a2 2 0 0 0 2 2h4a2 2 0 0 0 2-2v-1h-8z" fill="#ffcd00"/><circle cx="32" cy="15" fill="#f1f2f2" r="2"/><path d="m43 55h18v-18c0 10.5-6.393 18-18 18z" fill="#ffb655"/><path d="m9 51h24v-16c0 8.844-10.734 16-24 16z" fill="#ffc477"/><path d="m53 57h-2a1 1 0 0 0 0 2h2a1 1 0 0 0 0-2z" fill="#f1f2f2"/><path d="m51 35h2a1 1 0 0 0 0-2h-2a1 1 0 0 0 0 2z" fill="#f1f2f2"/><g fill="#ff6243"><path d="m48 40h-1a1 1 0 0 0 0 2h1a1 1 0 0 0 0-2z"/><path d="m51 42h6a1 1 0 0 0 0-2h-6a1 1 0 0 0 0 2z"/><path d="m48 44h-1a1 1 0 0 0 0 2h1a1 1 0 0 0 0-2z"/><path d="m57 44h-6a1 1 0 0 0 0 2h6a1 1 0 0 0 0-2z"/><path d="m48 48h-1a1 1 0 0 0 0 2h1a1 1 0 0 0 0-2z"/><path d="m57 48h-6a1 1 0 0 0 0 2h6a1 1 0 0 0 0-2z"/><path d="m16 38h-1a1 1 0 0 0 0 2h1a1 1 0 0 0 0-2z"/><path d="m26 38h-7a1 1 0 0 0 0 2h7a1 1 0 0 0 0-2z"/><path d="m16 42h-1a1 1 0 0 0 0 2h1a1 1 0 0 0 0-2z"/><path d="m26 42h-7a1 1 0 0 0 0 2h7a1 1 0 0 0 0-2z"/><path d="m16 46h-1a1 1 0 0 0 0 2h1a1 1 0 0 0 0-2z"/><path d="m26 46h-7a1 1 0 0 0 0 2h7a1 1 0 0 0 0-2z"/></g></g></svg>