<svg height="512" viewBox="0 0 64 64" width="512" xmlns="http://www.w3.org/2000/svg"><g id="Website_design" data-name="Website design"><path d="m7 15h54a0 0 0 0 1 0 0v40a2 2 0 0 1 -2 2h-50a2 2 0 0 1 -2-2v-40a0 0 0 0 1 0 0z" fill="#ffdaaa"/><path d="m9.438 56.991 49.562.009a2.006 2.006 0 0 0 2-2v-40c0 23.1-22.47 41.8-51.562 41.991z" fill="#ffc477"/><path d="m61 5v10h-54v-10a2.006 2.006 0 0 1 2-2h50a2.006 2.006 0 0 1 2 2z" fill="#1a6fb0"/><path d="m55 7h-20a2 2 0 0 0 0 4h20a2 2 0 0 0 0-4z" fill="#f1f2f2"/><circle cx="13" cy="9" fill="#d80027" r="2"/><circle cx="20" cy="9" fill="#ff9811" r="2"/><circle cx="27" cy="9" fill="#5eac24" r="2"/><path d="m47 35-8 8h16z" fill="#ffcd00"/><path d="m55 27h-16l8 8z" fill="#ffcd00"/><path d="m55 43v-16l-8 8z" fill="#ffcd00"/><path d="m39 27v16l8-8z" fill="#ffcd00"/><path d="m13.091 41.273a3.839 3.839 0 0 1 2.909 3.727 4 4 0 0 1 4-4 4 4 0 0 1 -4-4 4 4 0 0 1 -4 4z" fill="#ff9811"/><circle cx="24" cy="48" fill="#ffa733" r="6"/><circle cx="11" cy="53" fill="#ff9811" r="8"/><path d="m13 19h42v4h-42z" fill="#d80027"/><path d="m55 44a1 1 0 0 0 1-1v-16a1 1 0 0 0 -1-1h-16a1 1 0 0 0 -1 1v16a1 1 0 0 0 1 1zm-6.586-9 5.586-5.586v11.172zm4.172 7h-11.172l5.586-5.586zm-5.586-8.414-5.586-5.586h11.172zm-1.414 1.414-5.586 5.586v-11.172z" fill="#cca400"/><g fill="#ff6243"><path d="m15 28h-2a1 1 0 0 1 0-2h2a1 1 0 0 1 0 2z"/><path d="m35 28h-17a1 1 0 0 1 0-2h17a1 1 0 0 1 0 2z"/><path d="m35 32h-22a1 1 0 0 1 0-2h22a1 1 0 0 1 0 2z"/><path d="m55 48h-16a1 1 0 0 1 0-2h16a1 1 0 0 1 0 2z"/><path d="m55 52h-16a1 1 0 0 1 0-2h16a1 1 0 0 1 0 2z"/><path d="m35 36h-14a1 1 0 0 1 0-2h14a1 1 0 0 1 0 2z"/><path d="m35 40h-8a1 1 0 0 1 0-2h8a1 1 0 0 1 0 2z"/><path d="m35 44h-4a1 1 0 0 1 0-2h4a1 1 0 0 1 0 2z"/></g></g></svg>